<svg version="1.1" id="brain" xmlns="http://www.w3.org/2000/svg" xmlns:xlink="http://www.w3.org/1999/xlink" x="0px" y="0px"
	 width="80.998px" height="80.996px" viewBox="0 0 80.998 80.996" enable-background="new 0 0 80.998 80.996" xml:space="preserve">
    <path fill="#EB5A5F" d="M40.496,0C18.135,0,0,18.132,0,40.498c0,22.365,18.135,40.498,40.496,40.498
	c22.369,0,40.502-18.133,40.502-40.498C80.998,18.132,62.865,0,40.496,0 M29.6,62.724c-1.304,0-2.362-1.057-2.362-2.359
	c0-1.305,1.057-2.361,2.36-2.361s2.362,1.057,2.362,2.361C31.96,61.667,30.902,62.724,29.6,62.724 M34.553,57.164
	c-2.386,0-4.321-1.936-4.321-4.32c-0.001-2.387,1.933-4.32,4.319-4.32c2.384,0,4.32,1.934,4.32,4.32
	C38.871,55.228,36.938,57.164,34.553,57.164 M63.408,36.386c0.089,0.475,0.142,0.965,0.142,1.465c0,4.407-3.572,7.977-7.978,7.977
	c-1.606,0-3.101-0.48-4.353-1.297c-0.533,2.791-2.981,4.902-5.928,4.902c-1.915,0-3.617-0.893-4.724-2.281
	c-1.018,0.779-2.287,1.25-3.667,1.25c-2.056,0-3.869-1.029-4.96-2.6c0.007,0.121,0.019,0.238,0.019,0.359
	c0,3.338-2.704,6.041-6.041,6.041c-3.336,0-6.041-2.703-6.041-6.041c0-0.371,0.039-0.734,0.104-1.088
	c-0.328,0.057-0.663,0.092-1.006,0.092c-3.215,0-5.822-2.607-5.822-5.821c0-2.729,1.882-5.015,4.416-5.645
	c-0.414-0.902-0.651-1.903-0.651-2.961c0-3.936,3.189-7.124,7.123-7.124c0.154,0,0.304,0.013,0.454,0.021
	c0.771-2.065,2.759-3.54,5.095-3.54c1.659,0,3.142,0.746,4.142,1.916c1.233-2.229,3.607-3.741,6.336-3.741
	c2.067,0,3.925,0.87,5.243,2.258c0.916-1.112,2.306-1.821,3.861-1.821c2.098,0,3.896,1.3,4.635,3.139
	c0.466-0.094,0.947-0.145,1.44-0.145c2.951,0,5.49,1.741,6.663,4.25c0.273-0.043,0.555-0.073,0.842-0.073
	c2.914,0,5.276,2.362,5.276,5.276C68.029,33.847,66.013,36.063,63.408,36.386"/>
</svg>