<svg version="1.1" id="email" xmlns="http://www.w3.org/2000/svg" xmlns:xlink="http://www.w3.org/1999/xlink" x="0px" y="0px"
	 width="63px" height="63px" viewBox="0 0 63 63" enable-background="new 0 0 63 63" xml:space="preserve">
<path fill="#ED595C" d="M31.633,0.37C14.3,0.37,0.244,14.423,0.244,31.759c0,17.334,14.056,31.389,31.389,31.389
	c17.338,0,31.392-14.055,31.392-31.389C63.024,14.423,48.971,0.37,31.633,0.37z M55.791,25.996l-25.234,9.592l-13.26-23.514
	L55.791,25.996z M48.046,50.246c0,0-0.667,1.021-1.798,0.704C45.232,50.664,14.655,39.438,8.527,37.31
	C7.513,36.958,7.65,35.83,7.65,35.83L15.6,14.47l13.757,24.397l0.019-0.01l0.008,0.018l26.404-10.036L48.046,50.246z"/>
</svg>
