<svg version="1.1" id="facebook" xmlns="http://www.w3.org/2000/svg" xmlns:xlink="http://www.w3.org/1999/xlink" x="0px" y="0px" width="22px" height="22px" viewBox="0 0 22 22" enable-background="new 0 0 22 22" xml:space="preserve">
    <path fill="#FFFFFF" d="M10.902,1.48c-5.195,0-9.407,4.211-9.407,9.407c0,5.194,4.212,9.407,9.407,9.407
        c5.196,0,9.408-4.213,9.408-9.407C20.311,5.691,16.099,1.48,10.902,1.48z M13.77,10.986h-1.768c0,2.014,0,6.693,0,6.693
        s-2.592,0-2.863,0H9.136v-6.693H7.75v-0.096c0-0.764,0-1.526,0-2.291c0.462,0,0.926,0,1.386,0l0,0h0.003
        c-0.003-3.672,0.835-5.012,4.754-4.336V6.55c0,0-0.92-0.175-1.45,0.247c-0.538,0.516-0.44,1.803-0.44,1.803h0.003h2.052
        L13.77,10.986z">
    </path>
</svg>