<svg version="1.1" id="heart" xmlns="http://www.w3.org/2000/svg" xmlns:xlink="http://www.w3.org/1999/xlink" x="0px" y="0px"
	width="79.836px" height="79.834px" viewBox="0 0 79.836 79.834" enable-background="new 0 0 79.836 79.834" xml:space="preserve">
    <g>
        <path fill="#EB5A5F" d="M39.916,0C17.874,0,0,17.869,0,39.916c0,22.045,17.874,39.918,39.916,39.918
            c22.049,0,39.92-17.873,39.92-39.918C79.836,17.869,61.965,0,39.916,0 M61.207,50.203c-1.327,1.328-3.67,3.262-7.03,5.805
            c-3.361,2.541-6.101,4.541-8.224,6.002c-2.122,1.459-3.604,2.475-4.443,3.049c-0.442,0.311-0.973,0.465-1.592,0.465
            c-0.574,0-1.083-0.154-1.525-0.465c-0.928-0.617-2.42-1.646-4.477-3.082c-2.056-1.438-4.785-3.428-8.189-5.969
            c-3.404-2.543-5.771-4.477-7.097-5.805c-3.759-3.758-5.636-8.42-5.636-13.992c0-4.111,1.447-7.615,4.342-10.512
            c2.896-2.896,6.401-4.344,10.512-4.344c5.041,0,9.063,2.076,12.07,6.234c1.37-1.945,3.128-3.471,5.272-4.576
            c2.146-1.105,4.433-1.658,6.864-1.658c4.111,0,7.604,1.447,10.478,4.344c2.874,2.896,4.311,6.4,4.311,10.512
            C66.843,41.783,64.964,46.445,61.207,50.203"/>
        <path fill="#EB5A5F" d="M52.055,26.859c-2.609,0-4.818,0.908-6.633,2.719c-1.813,1.813-2.72,4.023-2.72,6.635
            c0,0.75-0.275,1.391-0.827,1.922c-0.553,0.529-1.205,0.795-1.957,0.795c-0.751,0-1.393-0.266-1.924-0.795
            c-0.529-0.531-0.795-1.172-0.795-1.922c0-2.611-0.917-4.822-2.752-6.635c-1.835-1.811-4.035-2.719-6.6-2.719
            s-4.763,0.908-6.6,2.719c-1.833,1.813-2.75,4.023-2.75,6.635c0,4.021,1.348,7.383,4.045,10.078
            c2.784,2.787,8.576,7.162,17.375,13.133c8.799-5.971,14.59-10.346,17.376-13.133c2.696-2.695,4.045-6.057,4.045-10.078
            c0-2.611-0.907-4.822-2.721-6.635C56.807,27.768,54.617,26.859,52.055,26.859"/>
    </g>
</svg>