<svg version="1.1" id="linkedin" xmlns="http://www.w3.org/2000/svg" xmlns:xlink="http://www.w3.org/1999/xlink" x="0px" y="0px" width="22px" height="22px" viewBox="0 0 22 22" enable-background="new 0 0 22 22" xml:space="preserve">
    <path fill="#FFFFFF" d="M10.946,1.313c-5.293,0-9.587,4.293-9.587,9.588c0,5.293,4.294,9.586,9.587,9.586
    c5.296,0,9.589-4.293,9.589-9.586C20.535,5.605,16.242,1.313,10.946,1.313z M8.182,15.828c-0.753,0-1.507,0-2.26,0V9.215h2.26
    C8.182,11.42,8.182,13.625,8.182,15.828z M7.09,8.449c-0.696,0-1.263-0.564-1.263-1.262S6.394,5.926,7.09,5.926
    c0.697,0,1.262,0.564,1.262,1.262S7.787,8.449,7.09,8.449z M16.053,15.828c-0.752,0-1.508,0-2.261,0c0,0-0.002-3.113-0.004-3.717
    c-0.105-0.83-0.437-1.379-1.336-1.221c-0.468,0.102-0.714,0.438-0.838,0.904v4.033c0,0-1.533,0-2.26,0c0-2.203,0-4.408,0-6.613
    c0.727,0,2.26,0,2.26,0v0.67c0.65-0.646,2.088-1.082,3.098-0.586c1.067,0.438,1.289,0.949,1.33,2.779
    C16.089,12.814,16.053,15.828,16.053,15.828z">
    </path>
</svg>