<svg version="1.1" id="logoHeader" xmlns="http://www.w3.org/2000/svg" xmlns:xlink="http://www.w3.org/1999/xlink" x="0px" y="0px"
	 width="192.333px" height="38.056px" viewBox="11.371 0 192.333 38.056" enable-background="new 11.371 0 192.333 38.056"
	 xml:space="preserve">
<g>
	<g>
		
			<linearGradient id="SVGID_1_" gradientUnits="userSpaceOnUse" x1="364.3979" y1="-309.3235" x2="411.6401" y2="-309.3235" gradientTransform="matrix(1 0 0 -1 -298.5 -286.7222)">
			<stop  offset="0.2568" style="stop-color:#FFFFFF"/>
			<stop  offset="1" style="stop-color:#FFFFFF;stop-opacity:0.4"/>
		</linearGradient>
		<path fill="url(#SVGID_1_)" d="M111.532,28.11c0,0-6.11,7.569-20.308,6.082c-15.266-1.599-21.167-14.986-21.167-14.986
			c0.21-0.025,0.434-0.058,0.658-0.103c2.115-0.381,2.958-1.758,2.958-4.098v-1.714c0-2.612-1.099-4.271-3.956-4.271h-3.818v19.042
			h0.604v-8.787h2.363c0,0,0.212,0.003,0.534-0.015c0.661,1.391,7.592,14.769,21.826,16.649c14.553,1.922,21.861-6.934,21.861-6.934
			l0.055-0.068c-0.589-0.197-1.11-0.485-1.559-0.864L111.532,28.11z M68.864,18.704h-2.363V9.592h3.187
			c2.472,0,3.379,1.441,3.379,3.753v1.741C73.067,18.024,71.529,18.704,68.864,18.704z"/>
	</g>
	<g>
		<path fill="#FFFFFF" d="M140.883,11.739v-2.72h-8.242v15.75c0.596,0.88,1.25,1.704,1.958,2.459
			c0.27,0.288,0.547,0.565,0.832,0.834h5.452v-2.721h-5.22v-5.577h4.148v-2.721h-4.148v-5.305H140.883z"/>
	</g>
	<g>
		
			<linearGradient id="SVGID_2_" gradientUnits="userSpaceOnUse" x1="481.812" y1="-292.0715" x2="498.5708" y2="-292.0715" gradientTransform="matrix(1 0 0 -1 -298.5 -286.7222)">
			<stop  offset="0" style="stop-color:#FFFFFF;stop-opacity:0.4"/>
			<stop  offset="0.1455" style="stop-color:#FFFFFF;stop-opacity:0.4873"/>
			<stop  offset="1" style="stop-color:#FFFFFF"/>
		</linearGradient>
		<path fill="url(#SVGID_2_)" d="M188.889,5.635c1.714-0.855,3.532-1.529,5.413-1.985c1.881-0.456,3.821-0.692,5.769-0.723
			c-1.947-0.036-3.905,0.133-5.817,0.528c-1.913,0.394-4.254,1.013-6.026,1.821c-1.554,0.708-3.507,1.554-4.915,2.499h1.962
			C186.425,6.985,187.627,6.262,188.889,5.635z"/>
	</g>
	<g>
		<g>
			
				<linearGradient id="SVGID_3_" gradientUnits="userSpaceOnUse" x1="420.0981" y1="-309.5154" x2="463.4624" y2="-309.5154" gradientTransform="matrix(1 0 0 -1 -298.5 -286.7222)">
				<stop  offset="0" style="stop-color:#FFFFFF"/>
				<stop  offset="0.8545" style="stop-color:#FFFFFF;stop-opacity:0.4873"/>
				<stop  offset="1" style="stop-color:#FFFFFF;stop-opacity:0.4"/>
			</linearGradient>
			<path fill="url(#SVGID_3_)" d="M158.978,31.747c-1.569,0.978-3.249,1.755-5.008,2.207c-0.878,0.226-1.774,0.373-2.677,0.435
				c-0.225,0.015-0.452,0.026-0.677,0.031l-0.335,0.004l-0.345-0.003c-0.47-0.003-0.938-0.019-1.405-0.044
				c-1.869-0.102-3.716-0.389-5.488-0.891c-1.772-0.501-3.467-1.224-5.017-2.162c-1.496-0.903-2.856-2.006-4.052-3.262l0,0
				c-0.044-0.046-0.09-0.091-0.134-0.137c-0.196-0.21-0.386-0.425-0.573-0.643c-0.033-0.037-0.064-0.075-0.095-0.113
				c-0.182-0.214-0.359-0.43-0.531-0.651v0c-0.724-0.929-1.373-1.917-1.939-2.946c-0.431-0.784-0.815-1.592-1.148-2.418
				c-0.167-0.413-0.32-0.829-0.458-1.247c-0.038-0.114-0.07-0.228-0.106-0.341c1.219-0.722,1.647-2.794,1.647-4.671v-1.497
				c0-2.938-1.346-4.379-4.479-4.379h-4.56v19.043h3.022v-7.754h1.044c0.311,0,0.564,0.006,0.791,0.007
				c0.042,0.125,0.081,0.253,0.124,0.377c0.164,0.47,0.342,0.932,0.534,1.39c0.385,0.912,0.822,1.8,1.313,2.664
				c0.979,1.724,2.17,3.346,3.566,4.796c1.396,1.452,3.001,2.727,4.762,3.756c1.761,1.031,3.672,1.814,5.645,2.343
				c1.972,0.53,4,0.814,6.021,0.896c0.505,0.021,1.01,0.031,1.515,0.028c0.144-0.002,0.24-0.005,0.385-0.01l0.394-0.018
				c0.261-0.015,0.521-0.037,0.781-0.063c1.037-0.107,2.063-0.312,3.055-0.604c1.988-0.584,3.823-1.521,5.478-2.635
				c1.658-1.116,3.15-2.402,4.544-3.755c0.133-0.13,0.261-0.263,0.393-0.395h-2.407C161.418,30.06,160.232,30.964,158.978,31.747z
				 M124.62,17.589v-5.85h1.456c1.072,0,1.539,0.598,1.539,1.958v1.877c0,1.523-0.687,2.013-1.813,2.013L124.62,17.589
				L124.62,17.589z"/>
		</g>
	</g>
	<g>
		<path fill="#FFFFFF" d="M13.757,13.562c0-2.258,0.852-4.135,3.378-4.135c2.5,0,3.352,1.904,3.352,4.163v0.381h0.604v-0.354
			c0-2.611-1.071-4.733-3.983-4.733c-2.774,0.027-3.955,1.932-3.955,4.707c0,5.25,7.361,5.086,7.361,9.902
			c0,2.312-0.907,4.135-3.434,4.135c-2.528,0-3.434-1.824-3.434-4.135v-0.953h-0.577v0.926c0,2.639,1.099,4.733,4.011,4.733
			c2.938,0,4.037-2.094,4.037-4.733C21.119,18.296,13.757,18.432,13.757,13.562z"/>
	</g>
	<g>
		<polygon fill="#FFFFFF" points="23.865,9.02 23.262,9.02 23.262,28.062 30.321,28.062 30.321,27.49 23.865,27.49 		"/>
	</g>
	<g>
		<rect x="32.409" y="9.02" fill="#FFFFFF" width="0.604" height="19.042"/>
	</g>
	<g>
		<g>
			<path fill="#FFFFFF" d="M39,9.02h-3.79v19.042h0.604v-8.08h2.747c3.049,0,4.422-1.441,4.422-4.461v-1.904
				C42.983,10.951,41.967,9.02,39,9.02z M42.38,15.549c0,2.692-1.127,3.863-3.819,3.863h-2.747v-9.82H39
				c2.583,0,3.38,1.659,3.38,3.999V15.549L42.38,15.549z"/>
		</g>
	</g>
	<g>
		<path fill="#FFFFFF" d="M45.731,13.562c0-2.258,0.851-4.135,3.379-4.135c2.5,0,3.351,1.904,3.351,4.163v0.381h0.604v-0.354
			c0-2.611-1.071-4.733-3.983-4.733c-2.774,0.027-3.956,1.932-3.956,4.707c0,5.25,7.362,5.086,7.362,9.902
			c0,2.312-0.907,4.135-3.434,4.135c-2.527,0-3.433-1.824-3.433-4.135v-0.953h-0.577v0.926c0,2.639,1.099,4.733,4.01,4.733
			c2.939,0,4.038-2.094,4.038-4.733C53.092,18.296,45.731,18.432,45.731,13.562z"/>
	</g>
	<g>
		<polygon fill="#FFFFFF" points="54.74,9.592 58.943,9.592 58.943,28.062 59.547,28.062 59.547,9.592 63.75,9.592 63.75,9.02 
			54.74,9.02 		"/>
	</g>
	<g>
		<g>
			<path fill="#FFFFFF" d="M87.016,23.573h6.84l1.126,4.489h0.604l-4.752-19.07h-0.852l-4.642,19.07h0.548L87.016,23.573z
				 M90.395,9.699l3.351,13.33h-6.62L90.395,9.699z"/>
		</g>
	</g>
	<g>
		<polygon fill="#FFFFFF" points="98.25,9.917 103.002,28.007 103.689,28.007 108.414,9.917 108.414,28.062 109.019,28.062 
			109.019,9.02 108.085,9.02 103.36,27.083 98.636,9.02 97.702,9.02 97.702,28.062 98.25,28.062 		"/>
	</g>
	<g>
		<g>
			<path fill="#FFFFFF" d="M145.25,24.608h3.709l0.521,3.454h3.05l-3.078-19.043h-4.422l-3.077,19.043h2.774L145.25,24.608z
				 M147.091,12.392l1.457,9.631h-2.912L147.091,12.392z"/>
		</g>
	</g>
	<g>
		<path fill="#FFFFFF" d="M159.234,28.062V11.739h3.16v-1.374c-0.523-0.485-1.045-0.932-1.57-1.346h-7.771v2.72h3.159v16.323
			H159.234z"/>
	</g>
	<g>
		<path fill="#FFFFFF" d="M163.712,28.062h3.021V15.188c-1.158-1.465-2.094-2.56-3.021-3.525V28.062z"/>
	</g>
	<g>
		<path fill="#FFFFFF" d="M176.671,21.227l1.902-12.208h-2.776l-1.378,9.281c0.585,0.774,1.184,1.563,1.781,2.329
			C176.354,20.824,176.513,21.027,176.671,21.227z"/>
	</g>
	<g>
		<path fill="#FFFFFF" d="M170.06,12.695c0.646,0.783,1.315,1.623,2.052,2.572l-0.928-6.248h-3.05l0.275,1.763
			C168.953,11.383,169.501,12.017,170.06,12.695z"/>
	</g>
	<g>
		<path fill="#FFFFFF" d="M173.406,23.982c-0.203-0.248-0.405-0.499-0.611-0.757c-1.082-1.367-2.106-2.745-3.053-4.03l-0.028-0.037
			l1.387,8.905h4.505l0.206-1.315c-0.742-0.796-1.493-1.656-2.262-2.59L173.406,23.982z"/>
	</g>
	<g>
		<path fill="#FFFFFF" d="M182.646,27.684c0.151,0.129,0.302,0.254,0.452,0.378h5.118v-2.72h-5.219v-5.578h4.148v-2.721h-4.148
			v-5.305h1.702v-2.72h-4.725V25.11C180.809,25.998,181.698,26.869,182.646,27.684z"/>
	</g>
	<g>
		<polygon fill="#FFFFFF" points="185.773,11.739 185.773,9.414 186.224,9.414 186.224,9.026 184.892,9.026 184.892,9.414 
			185.343,9.414 185.343,11.739 		"/>
	</g>
	<g>
		<polygon fill="#FFFFFF" points="188.215,11.739 188.215,9.026 187.616,9.026 187.323,10.952 187.007,9.026 186.408,9.026 
			186.408,11.739 186.783,11.739 186.783,9.82 187.104,11.739 187.511,11.739 187.808,9.793 187.808,11.739 		"/>
	</g>
	<g>
		
			<linearGradient id="SVGID_4_" gradientUnits="userSpaceOnUse" x1="430.5757" y1="-305.8445" x2="498.5708" y2="-305.8445" gradientTransform="matrix(1 0 0 -1 -298.5 -286.7222)">
			<stop  offset="0" style="stop-color:#FFFFFF;stop-opacity:0.4"/>
			<stop  offset="0.5092" style="stop-color:#FFFFFF"/>
			<stop  offset="0.9698" style="stop-color:#FFFFFF;stop-opacity:0.4369"/>
			<stop  offset="1" style="stop-color:#FFFFFF;stop-opacity:0.4"/>
		</linearGradient>
		<path fill="url(#SVGID_4_)" d="M185.904,31.313c-1.397-0.831-2.7-1.801-3.933-2.852c-2.461-2.116-4.573-4.612-6.591-7.208
			c-1.012-1.297-2.001-2.626-3.01-3.954c-1.007-1.327-2.038-2.652-3.113-3.957c-1.075-1.303-2.211-2.574-3.438-3.773
			c-0.614-0.599-1.25-1.18-1.914-1.731c-0.668-0.549-1.36-1.072-2.082-1.557c-0.72-0.488-1.475-0.926-2.251-1.322
			c-0.776-0.397-1.578-0.748-2.399-1.04c-1.639-0.591-3.346-0.974-5.059-1.173c-1.714-0.201-3.438-0.213-5.141-0.135
			c-1.707,0.082-3.409,0.304-5.07,0.697c-1.661,0.396-3.287,0.93-4.838,1.627c-1.551,0.696-3.036,1.529-4.445,2.465
			c-0.185,0.122-0.362,0.25-0.544,0.375h1.12c2.689-1.79,5.696-3.122,8.862-3.806c1.625-0.349,3.283-0.541,4.944-0.576
			c1.666-0.036,3.325,0.108,4.944,0.414c1.617,0.307,3.19,0.789,4.671,1.449c0.74,0.332,1.459,0.701,2.156,1.108
			c0.698,0.407,1.365,0.859,2.018,1.333c1.299,0.955,2.5,2.043,3.626,3.211c1.127,1.169,2.171,2.427,3.187,3.716
			c1.016,1.29,1.986,2.626,2.974,3.964c0.987,1.339,1.986,2.681,3.032,4.002c2.092,2.634,4.404,5.187,7.126,7.318
			c2.705,2.14,5.846,3.788,9.17,4.72c3.327,0.938,6.789,1.204,10.164,0.965v-0.205c-3.359-0.238-6.675-0.815-9.755-1.968
			C188.773,32.859,187.302,32.139,185.904,31.313z"/>
	</g>
	<g>
		<path fill="#FFFFFF" d="M76.94,18.677h5.658v-0.543H76.94V9.592h6.729V9.02h-7.334v17.167c0.199,0.194,0.401,0.386,0.604,0.571
			L76.94,18.677L76.94,18.677z"/>
	</g>
	<g>
		<path fill="#FFFFFF" d="M115.252,8.801c-2.967,0-4.505,1.741-4.505,4.788v9.903c0,3.047,1.539,4.789,4.505,4.789
			c2.966,0,4.505-1.741,4.505-4.789v-2.53H116.9v2.721c0,1.36-0.604,1.85-1.566,1.85c-0.961,0-1.565-0.49-1.565-1.85V13.399
			c0-1.361,0.604-1.877,1.565-1.877c0.962,0,1.566,0.517,1.566,1.877v2.04h2.857v-1.85C119.757,10.542,118.218,8.801,115.252,8.801z
			"/>
	</g>
	<g>
		<path fill="#FFFFFF" d="M78.468,28.062h5.202V27.49h-5.901C78,27.686,78.232,27.876,78.468,28.062z"/>
	</g>
</g>
</svg>
