<svg version="1.1" id="lquote" xmlns="http://www.w3.org/2000/svg" xmlns:xlink="http://www.w3.org/1999/xlink" x="0px" y="0px"
	 width="103px" height="98.271px" viewBox="0 0 103 98.271" enable-background="new 0 0 103 98.271" xml:space="preserve">
<g>
	<path fill="#B3B3B3" d="M59.109,98.271l0.002-46.838c-0.202-6.737,0.765-13.063,2.906-18.979
		c2.144-5.925,5.156-11.126,9.033-15.614c3.877-4.49,8.521-8.219,13.928-11.173C90.393,2.702,96.264,0.813,102.585,0l-0.002,20.206
		c-7.752,2.651-13.06,6.582-15.918,11.784c-2.856,5.207-4.287,11.585-4.287,19.133l20.205,0.001l-0.002,47.146H59.109V98.271z"/>
	<path fill="#B3B3B3" d="M0.022,98.271l0.004-46.838C-0.177,44.697,0.788,38.37,2.93,32.454c2.143-5.925,5.158-11.126,9.035-15.614
		c3.877-4.49,8.521-8.219,13.928-11.172C31.306,2.702,37.175,0.813,43.499,0l-0.002,20.206c-7.754,2.651-13.061,6.582-15.92,11.784
		c-2.855,5.207-4.287,11.585-4.287,19.135l20.205-0.001L43.493,98.27H0.022V98.271z"/>
</g>
</svg>
