<svg version="1.1" id="pinterest" xmlns="http://www.w3.org/2000/svg" xmlns:xlink="http://www.w3.org/1999/xlink" x="0px" y="0px" width="22px" height="22px" viewBox="0 0 22 22" enable-background="new 0 0 22 22" xml:space="preserve">
    <path fill="#FFFFFF" d="M10.588,1.313C5.294,1.313,1,5.605,1,10.9c0,5.293,4.294,9.586,9.588,9.586c5.295,0,9.588-4.293,9.588-9.586
        C20.176,5.605,15.883,1.313,10.588,1.313z M11.024,15.131c-0.577-0.111-1.173-0.867-1.421-0.75
        c-0.367,1.332-0.865,2.988-1.715,3.744c-0.447,0.455-0.808,0.262-0.791-0.322c0.021-2.566,0.863-4.313,1.253-6.512
        c-0.608-1.227-0.198-3.809,1.586-3.592c2.816,0.34-1.496,5.369,1.17,5.928c2.182,0.457,3.362-2.633,3.091-4.928
        c-0.242-2.037-2.166-3.086-4.426-2.754c-2.178,0.32-3.66,2.449-3.259,4.676c0.069,0.385,1.319,2.135,0.168,2.422
        c-0.855,0.213-1.814-1.625-1.921-2.756C4.113,3.334,14.848,2.57,16.202,8.115C17.05,11.588,14.699,15.842,11.024,15.131z">
    </path>
</svg>