<svg version="1.1" id="rquote" xmlns="http://www.w3.org/2000/svg" xmlns:xlink="http://www.w3.org/1999/xlink" x="0px" y="0px"
	 width="103px" height="98.27px" viewBox="0 0 103 98.27" enable-background="new 0 0 103 98.27" xml:space="preserve">
<g>
	<path fill="#B3B3B3" d="M43.721,0l-0.002,46.838c0.203,6.736-0.764,13.063-2.906,18.979c-2.143,5.925-5.156,11.126-9.033,15.614
		c-3.877,4.489-8.521,8.219-13.928,11.172C12.44,95.568,6.569,97.457,0.247,98.27l0.002-20.205C8,75.413,13.307,71.482,16.166,66.28
		c2.857-5.207,4.287-11.585,4.287-19.133L0.248,47.146L0.25,0H43.721z"/>
	<path fill="#B3B3B3" d="M102.809,0l-0.004,46.837c0.203,6.737-0.762,13.064-2.904,18.98c-2.143,5.925-5.157,11.126-9.034,15.614
		c-3.877,4.489-8.521,8.219-13.929,11.172c-5.412,2.965-11.28,4.854-17.604,5.666l0.002-20.205
		c7.754-2.651,13.062-6.582,15.92-11.784c2.854-5.207,4.287-11.585,4.287-19.135l-20.205,0.001L59.339,0H102.809L102.809,0z"/>
</g>
</svg>
