<svg version="1.1" id="twitter" xmlns="http://www.w3.org/2000/svg" xmlns:xlink="http://www.w3.org/1999/xlink" x="0px" y="0px" width="22px" height="22px" viewBox="0 0 22 22" enable-background="new 0 0 22 22" xml:space="preserve">
    <path fill="#FFFFFF" d="M10.864,1.313c-5.293,0-9.586,4.293-9.586,9.588c0,5.293,4.293,9.586,9.586,9.586
        c5.297,0,9.589-4.293,9.589-9.586C20.453,5.605,16.161,1.313,10.864,1.313z M17.231,10.336c0.005,0.691-0.701,0.676-1.333,0.727
        c-1.126,2.381-3.004,4.648-6.549,4.486c-2.112-0.098-3.94-0.998-4.97-2.547c0.804,0.447,3.685,1.404,4.486-0.119
        c-0.157-0.209-0.578-0.152-0.606-0.486C7.956,12.08,8.563,11.99,8.623,11.67c-0.583-0.229-1.337-0.279-1.575-0.85
        c0.087-0.273,0.365-0.363,0.605-0.484c-0.536-0.311-1.117-0.58-1.092-1.455c0.202,0,0.404,0,0.607,0
        C6.868,8.412,6.33,8.182,6.32,7.426c1.665-0.121,2.829,1.289,4.122,1.941c0.658-1.713,1.608-3.561,3.515-3.033
        c-0.054,0.352-0.256,0.553-0.606,0.609c2.037,0.084,1.688,3.504,4.001,2.545c-0.218,0.389-0.597,0.615-1.091,0.725
        C16.352,10.488,16.94,10.262,17.231,10.336z">
    </path>
</svg>